#!OML:ASF I:\Actors\actors\Patient Classification 1\Patient 1\Session 1\Subject1.ASF
:FULLY-SPECIFIED
:DEGREES
197
root 0.504326 17.4941 8.91712 10.6709 -8.92066 -9.05609
lowerback 1.85503 1.18826 9.82047
upperback -8.8324 2.46664 1.94981
thorax -10.2477 0.477204 -3.62976
lowerneck -13.1193 5.94986 5.42239
upperneck 33.2755 6.64229 1.86103
head 13.565 3.83996 0.820399
rclavicle -9.25591e-015 -7.30037e-014
rhumerus 3.88155 63.5346 -71.1748
rradius 106.28
rwrist -13.4483
rhand 2.34565 -47.2414
rfingers 7.12502
rthumb 27.8351 -75.1996
lclavicle -9.25591e-015 -7.30037e-014
lhumerus -23.0748 -45.3348 51.0015
lradius 113.098
lwrist 60.4778
lhand 5.15449 -12.0048
lfingers 7.12502
lthumb 30.5173 15.4875
rfemur -8.16135 25.5536 24.3028
rtibia 2.84106
rfoot -8.30979 -17.8125
rtoes -1.33194
lfemur 6.58203 -46.4286 -13.337
ltibia -4.64584
lfoot -35.0067 57.9798
ltoes 21.2781
198
root 0.501738 17.4979 8.93056 10.7938 -9.35597 -8.71272
lowerback 1.59684 1.38811 9.56998
upperback -8.88001 2.67288 1.77287
thorax -10.1115 0.594731 -3.69387
lowerneck -13.2852 6.12739 5.37029
upperneck 33.7725 6.81612 2.15561
head 13.8084 3.95032 0.995624
rclavicle -1.37286e-015 2.07233e-014
rhumerus 4.00512 64.7789 -71.3194
rradius 107.016
rwrist -13.6371
rhand 3.37487 -46.3667
rfingers 7.12502
rthumb 28.8187 -74.1614
lclavicle -1.37286e-015 2.07233e-014
lhumerus -24.4715 -45.5854 51.0758
lradius 114.347
lwrist 60.9442
lhand 6.87061 -11.7093
lfingers 7.12502
lthumb 32.1525 15.4659
rfemur -8.39388 25.7351 23.77
rtibia 2.86391
rfoot -8.30018 -17.6325
rtoes -1.44044
lfemur 6.59741 -46.6449 -13.8396
ltibia -4.55483
lfoot -36.3762 58.167
ltoes 22.15
199
root 0.503761 17.4984 8.9414 10.8618 -9.68181 -8.77694
lowerback 1.55711 1.6091 9.94555
upperback -8.93553 2.98052 1.59742
thorax -10.0929 0.704116 -4.11672
lowerneck -13.2328 6.29369 5.50837
upperneck 33.9965 6.97762 2.3213
head 13.9007 4.06289 1.07061
rclavicle 2.33572e-015 1.04362e-014
rhumerus 3.83965 65.854 -71.7531
rradius 107.524
rwrist -14.0257
rhand 4.15561 -45.4396
rfingers 7.12502
rthumb 29.5643 -73.1049
lclavicle 2.33572e-015 1.04362e-014
lhumerus -25.8849 -46.1411 51.2312
lradius 115.481
lwrist 60.9455
lhand 8.66278 -11.3181
lfingers 7.12502
lthumb 33.857 15.4973
rfemur -8.42433 25.798 23.8026
rtibia 2.83602
rfoot -8.257 -17.3947
rtoes -1.62024
lfemur 6.74734 -46.6068 -13.9332
ltibia -4.55942
lfoot -37.1209 58.2361
ltoes 22.5927
200
root 0.505003 17.4993 8.95109 10.8757 -10.0078 -8.7638
lowerback 1.59477 1.80585 10.1443
upperback -9.01361 3.25883 1.46484
thorax -10.1521 0.810992 -4.3962
lowerneck -13.0229 6.47432 5.7258
upperneck 34.0975 7.21502 2.29946
head 13.9179 4.19395 1.05981
rclavicle -3.15819e-014 -3.02153e-014
rhumerus 3.55216 66.9962 -72.2705
rradius 107.818
rwrist -14.4534
rhand 4.67 -44.5925
rfingers 7.12502
rthumb 30.0552 -72.1697
lclavicle -3.15819e-014 -3.02153e-014
lhumerus -27.3617 -46.7241 51.5872
lradius 116.32
lwrist 61.0313
lhand 11.1991 -10.98
lfingers 7.12502
lthumb 36.2627 15.2715
rfemur -8.38617 25.9016 23.7668
rtibia 2.76794
rfoot -8.19144 -17.222
rtoes -1.80576
lfemur 6.97136 -46.5984 -14.1878
ltibia -4.54551
lfoot -37.7805 58.3642
ltoes 22.9264
201
root 0.50616 17.4994 8.96151 10.8794 -10.2966 -8.66151
lowerback 1.5735 1.96981 10.2333
upperback -9.08094 3.47764 1.34354
thorax -10.1732 0.900789 -4.59507
lowerneck -12.7976 6.64053 5.79054
upperneck 34.1611 7.4438 2.36766
head 13.9018 4.31417 1.10591
rclavicle -8.62228e-015 3.13086e-014
rhumerus 3.39397 68.1831 -72.6935
rradius 107.878
rwrist -14.67
rhand 5.27608 -43.6802
rfingers 7.12502
rthumb 30.6333 -71.151
lclavicle -8.62228e-015 3.13086e-014
lhumerus -28.89 -47.3811 52.1246
lradius 116.922
lwrist 61.0434
lhand 13.3658 -10.5561
lfingers 7.12502
lthumb 38.3112 15.1578
rfemur -8.34147 25.9933 23.6237
rtibia 2.67799
rfoot -8.14644 -17.082
rtoes -1.98756
lfemur 7.21467 -46.7272 -14.5767
ltibia -4.5131
lfoot -38.633 58.5216
ltoes 23.2912
